<mxfile host="app.diagrams.net" modified="2023-07-20T23:43:32.511Z" agent="Mozilla/5.0 (Macintosh; Intel Mac OS X 10_15_7) AppleWebKit/537.36 (KHTML, like Gecko) Chrome/114.0.0.0 Safari/537.36" etag="7-iiw-KasEBlruWK4Bwn" version="21.6.2" type="github">
  <diagram id="C5RBs43oDa-KdzZeNtuy" name="Page-1">
    <mxGraphModel dx="1242" dy="738" grid="1" gridSize="10" guides="1" tooltips="1" connect="1" arrows="1" fold="1" page="1" pageScale="1" pageWidth="827" pageHeight="1169" math="0" shadow="0">
      <root>
        <mxCell id="WIyWlLk6GJQsqaUBKTNV-0" />
        <mxCell id="WIyWlLk6GJQsqaUBKTNV-1" parent="WIyWlLk6GJQsqaUBKTNV-0" />
        <mxCell id="ku0LGPkiu12r3fjWDvM0-12" style="edgeStyle=orthogonalEdgeStyle;rounded=0;orthogonalLoop=1;jettySize=auto;html=1;entryX=0.5;entryY=0;entryDx=0;entryDy=0;" edge="1" parent="WIyWlLk6GJQsqaUBKTNV-1" source="WIyWlLk6GJQsqaUBKTNV-3" target="ku0LGPkiu12r3fjWDvM0-10">
          <mxGeometry relative="1" as="geometry" />
        </mxCell>
        <mxCell id="WIyWlLk6GJQsqaUBKTNV-3" value="Blackjack Landing page." style="rounded=1;whiteSpace=wrap;html=1;fontSize=12;glass=0;strokeWidth=1;shadow=0;" parent="WIyWlLk6GJQsqaUBKTNV-1" vertex="1">
          <mxGeometry x="30" y="20" width="120" height="40" as="geometry" />
        </mxCell>
        <mxCell id="WIyWlLk6GJQsqaUBKTNV-5" value="Stay" style="edgeStyle=orthogonalEdgeStyle;rounded=0;html=1;jettySize=auto;orthogonalLoop=1;fontSize=11;endArrow=block;endFill=0;endSize=8;strokeWidth=1;shadow=0;labelBackgroundColor=none;exitX=1;exitY=0.5;exitDx=0;exitDy=0;entryX=0.5;entryY=0;entryDx=0;entryDy=0;" parent="WIyWlLk6GJQsqaUBKTNV-1" source="WIyWlLk6GJQsqaUBKTNV-6" target="WIyWlLk6GJQsqaUBKTNV-7" edge="1">
          <mxGeometry x="-0.2727" y="10" relative="1" as="geometry">
            <mxPoint as="offset" />
            <mxPoint x="260" y="565" as="targetPoint" />
          </mxGeometry>
        </mxCell>
        <mxCell id="ku0LGPkiu12r3fjWDvM0-34" style="edgeStyle=orthogonalEdgeStyle;rounded=0;orthogonalLoop=1;jettySize=auto;html=1;entryX=0.5;entryY=0;entryDx=0;entryDy=0;exitX=0;exitY=0.5;exitDx=0;exitDy=0;" edge="1" parent="WIyWlLk6GJQsqaUBKTNV-1" source="WIyWlLk6GJQsqaUBKTNV-6" target="ku0LGPkiu12r3fjWDvM0-33">
          <mxGeometry relative="1" as="geometry" />
        </mxCell>
        <mxCell id="ku0LGPkiu12r3fjWDvM0-38" value="Hit&lt;br&gt;" style="edgeLabel;html=1;align=center;verticalAlign=middle;resizable=0;points=[];" vertex="1" connectable="0" parent="ku0LGPkiu12r3fjWDvM0-34">
          <mxGeometry x="-0.2909" y="4" relative="1" as="geometry">
            <mxPoint x="-1" y="-14" as="offset" />
          </mxGeometry>
        </mxCell>
        <mxCell id="WIyWlLk6GJQsqaUBKTNV-6" value="Hit or Stay?" style="rhombus;whiteSpace=wrap;html=1;shadow=0;fontFamily=Helvetica;fontSize=12;align=center;strokeWidth=1;spacing=6;spacingTop=-4;" parent="WIyWlLk6GJQsqaUBKTNV-1" vertex="1">
          <mxGeometry x="110" y="465" width="100" height="80" as="geometry" />
        </mxCell>
        <mxCell id="ku0LGPkiu12r3fjWDvM0-42" value="" style="edgeStyle=orthogonalEdgeStyle;rounded=0;orthogonalLoop=1;jettySize=auto;html=1;" edge="1" parent="WIyWlLk6GJQsqaUBKTNV-1" source="WIyWlLk6GJQsqaUBKTNV-7" target="ku0LGPkiu12r3fjWDvM0-41">
          <mxGeometry relative="1" as="geometry" />
        </mxCell>
        <mxCell id="WIyWlLk6GJQsqaUBKTNV-7" value="Dealer receives card until greater than player" style="rounded=1;whiteSpace=wrap;html=1;fontSize=12;glass=0;strokeWidth=1;shadow=0;" parent="WIyWlLk6GJQsqaUBKTNV-1" vertex="1">
          <mxGeometry x="230" y="540" width="120" height="40" as="geometry" />
        </mxCell>
        <mxCell id="WIyWlLk6GJQsqaUBKTNV-8" value="Yes" style="rounded=0;html=1;jettySize=auto;orthogonalLoop=1;fontSize=11;endArrow=block;endFill=0;endSize=8;strokeWidth=1;shadow=0;labelBackgroundColor=none;edgeStyle=orthogonalEdgeStyle;" parent="WIyWlLk6GJQsqaUBKTNV-1" source="WIyWlLk6GJQsqaUBKTNV-10" target="WIyWlLk6GJQsqaUBKTNV-11" edge="1">
          <mxGeometry x="0.1081" y="1" relative="1" as="geometry">
            <mxPoint as="offset" />
          </mxGeometry>
        </mxCell>
        <mxCell id="ku0LGPkiu12r3fjWDvM0-36" style="edgeStyle=orthogonalEdgeStyle;rounded=0;orthogonalLoop=1;jettySize=auto;html=1;entryX=0.5;entryY=1;entryDx=0;entryDy=0;" edge="1" parent="WIyWlLk6GJQsqaUBKTNV-1" source="WIyWlLk6GJQsqaUBKTNV-10" target="WIyWlLk6GJQsqaUBKTNV-6">
          <mxGeometry relative="1" as="geometry" />
        </mxCell>
        <mxCell id="ku0LGPkiu12r3fjWDvM0-37" value="No" style="edgeLabel;html=1;align=center;verticalAlign=middle;resizable=0;points=[];" vertex="1" connectable="0" parent="ku0LGPkiu12r3fjWDvM0-36">
          <mxGeometry x="0.04" y="-2" relative="1" as="geometry">
            <mxPoint as="offset" />
          </mxGeometry>
        </mxCell>
        <mxCell id="WIyWlLk6GJQsqaUBKTNV-10" value="Is total &amp;gt; 21" style="rhombus;whiteSpace=wrap;html=1;shadow=0;fontFamily=Helvetica;fontSize=12;align=center;strokeWidth=1;spacing=6;spacingTop=-4;" parent="WIyWlLk6GJQsqaUBKTNV-1" vertex="1">
          <mxGeometry x="110" y="620" width="100" height="80" as="geometry" />
        </mxCell>
        <mxCell id="ku0LGPkiu12r3fjWDvM0-48" value="" style="edgeStyle=orthogonalEdgeStyle;rounded=0;orthogonalLoop=1;jettySize=auto;html=1;" edge="1" parent="WIyWlLk6GJQsqaUBKTNV-1" source="WIyWlLk6GJQsqaUBKTNV-11" target="ku0LGPkiu12r3fjWDvM0-47">
          <mxGeometry relative="1" as="geometry" />
        </mxCell>
        <mxCell id="WIyWlLk6GJQsqaUBKTNV-11" value="Player Bust.&amp;nbsp;" style="rounded=1;whiteSpace=wrap;html=1;fontSize=12;glass=0;strokeWidth=1;shadow=0;" parent="WIyWlLk6GJQsqaUBKTNV-1" vertex="1">
          <mxGeometry y="770" width="120" height="40" as="geometry" />
        </mxCell>
        <mxCell id="ku0LGPkiu12r3fjWDvM0-24" value="" style="edgeStyle=orthogonalEdgeStyle;rounded=0;orthogonalLoop=1;jettySize=auto;html=1;entryX=0;entryY=0.5;entryDx=0;entryDy=0;" edge="1" parent="WIyWlLk6GJQsqaUBKTNV-1" source="ku0LGPkiu12r3fjWDvM0-8" target="ku0LGPkiu12r3fjWDvM0-23">
          <mxGeometry relative="1" as="geometry" />
        </mxCell>
        <mxCell id="ku0LGPkiu12r3fjWDvM0-8" value="Start New Game" style="rounded=1;whiteSpace=wrap;html=1;fontSize=12;glass=0;strokeWidth=1;shadow=0;" vertex="1" parent="WIyWlLk6GJQsqaUBKTNV-1">
          <mxGeometry x="30" y="280" width="120" height="40" as="geometry" />
        </mxCell>
        <mxCell id="ku0LGPkiu12r3fjWDvM0-14" style="edgeStyle=orthogonalEdgeStyle;rounded=0;orthogonalLoop=1;jettySize=auto;html=1;entryX=0;entryY=0.5;entryDx=0;entryDy=0;exitX=1;exitY=0.5;exitDx=0;exitDy=0;" edge="1" parent="WIyWlLk6GJQsqaUBKTNV-1" source="ku0LGPkiu12r3fjWDvM0-10" target="ku0LGPkiu12r3fjWDvM0-13">
          <mxGeometry relative="1" as="geometry" />
        </mxCell>
        <mxCell id="ku0LGPkiu12r3fjWDvM0-16" value="Advance" style="edgeLabel;html=1;align=center;verticalAlign=middle;resizable=0;points=[];" vertex="1" connectable="0" parent="ku0LGPkiu12r3fjWDvM0-14">
          <mxGeometry x="-0.6857" y="1" relative="1" as="geometry">
            <mxPoint x="21" y="-30" as="offset" />
          </mxGeometry>
        </mxCell>
        <mxCell id="ku0LGPkiu12r3fjWDvM0-21" value="" style="edgeStyle=orthogonalEdgeStyle;rounded=0;orthogonalLoop=1;jettySize=auto;html=1;exitX=0;exitY=0.5;exitDx=0;exitDy=0;" edge="1" parent="WIyWlLk6GJQsqaUBKTNV-1" source="ku0LGPkiu12r3fjWDvM0-10" target="ku0LGPkiu12r3fjWDvM0-8">
          <mxGeometry relative="1" as="geometry" />
        </mxCell>
        <mxCell id="ku0LGPkiu12r3fjWDvM0-22" value="Casual" style="edgeLabel;html=1;align=center;verticalAlign=middle;resizable=0;points=[];" vertex="1" connectable="0" parent="ku0LGPkiu12r3fjWDvM0-21">
          <mxGeometry x="-0.36" y="-1" relative="1" as="geometry">
            <mxPoint x="11" y="38" as="offset" />
          </mxGeometry>
        </mxCell>
        <mxCell id="ku0LGPkiu12r3fjWDvM0-10" value="Settings:&lt;br&gt;Advance or Casual?&lt;br&gt;" style="rhombus;whiteSpace=wrap;html=1;shadow=0;fontFamily=Helvetica;fontSize=12;align=center;strokeWidth=1;spacing=6;spacingTop=-4;" vertex="1" parent="WIyWlLk6GJQsqaUBKTNV-1">
          <mxGeometry x="110" y="130" width="100" height="80" as="geometry" />
        </mxCell>
        <mxCell id="ku0LGPkiu12r3fjWDvM0-20" value="" style="edgeStyle=orthogonalEdgeStyle;rounded=0;orthogonalLoop=1;jettySize=auto;html=1;" edge="1" parent="WIyWlLk6GJQsqaUBKTNV-1" source="ku0LGPkiu12r3fjWDvM0-13" target="ku0LGPkiu12r3fjWDvM0-19">
          <mxGeometry relative="1" as="geometry" />
        </mxCell>
        <mxCell id="ku0LGPkiu12r3fjWDvM0-13" value="Add Advance Game Logic - Betting, New Rules" style="rounded=1;whiteSpace=wrap;html=1;fontSize=12;glass=0;strokeWidth=1;shadow=0;" vertex="1" parent="WIyWlLk6GJQsqaUBKTNV-1">
          <mxGeometry x="250" y="20" width="120" height="40" as="geometry" />
        </mxCell>
        <mxCell id="ku0LGPkiu12r3fjWDvM0-65" value="" style="edgeStyle=orthogonalEdgeStyle;rounded=0;orthogonalLoop=1;jettySize=auto;html=1;" edge="1" parent="WIyWlLk6GJQsqaUBKTNV-1" source="ku0LGPkiu12r3fjWDvM0-19" target="ku0LGPkiu12r3fjWDvM0-64">
          <mxGeometry relative="1" as="geometry" />
        </mxCell>
        <mxCell id="ku0LGPkiu12r3fjWDvM0-19" value="Game Set Up" style="rounded=1;whiteSpace=wrap;html=1;fontSize=12;glass=0;strokeWidth=1;shadow=0;" vertex="1" parent="WIyWlLk6GJQsqaUBKTNV-1">
          <mxGeometry x="440" y="20" width="120" height="40" as="geometry" />
        </mxCell>
        <mxCell id="ku0LGPkiu12r3fjWDvM0-26" value="" style="edgeStyle=orthogonalEdgeStyle;rounded=0;orthogonalLoop=1;jettySize=auto;html=1;" edge="1" parent="WIyWlLk6GJQsqaUBKTNV-1" source="ku0LGPkiu12r3fjWDvM0-23" target="ku0LGPkiu12r3fjWDvM0-25">
          <mxGeometry relative="1" as="geometry" />
        </mxCell>
        <mxCell id="ku0LGPkiu12r3fjWDvM0-23" value="Dealer deals 1 card to player and self." style="rounded=1;whiteSpace=wrap;html=1;fontSize=12;glass=0;strokeWidth=1;shadow=0;" vertex="1" parent="WIyWlLk6GJQsqaUBKTNV-1">
          <mxGeometry x="210" y="215" width="120" height="40" as="geometry" />
        </mxCell>
        <mxCell id="ku0LGPkiu12r3fjWDvM0-30" value="" style="edgeStyle=orthogonalEdgeStyle;rounded=0;orthogonalLoop=1;jettySize=auto;html=1;" edge="1" parent="WIyWlLk6GJQsqaUBKTNV-1" source="ku0LGPkiu12r3fjWDvM0-25" target="ku0LGPkiu12r3fjWDvM0-29">
          <mxGeometry relative="1" as="geometry" />
        </mxCell>
        <mxCell id="ku0LGPkiu12r3fjWDvM0-25" value="Dealer deals 1 card to player and a hidden card to self." style="rounded=1;whiteSpace=wrap;html=1;fontSize=12;glass=0;strokeWidth=1;shadow=0;" vertex="1" parent="WIyWlLk6GJQsqaUBKTNV-1">
          <mxGeometry x="210" y="280" width="120" height="40" as="geometry" />
        </mxCell>
        <mxCell id="ku0LGPkiu12r3fjWDvM0-31" style="edgeStyle=orthogonalEdgeStyle;rounded=0;orthogonalLoop=1;jettySize=auto;html=1;exitX=0.5;exitY=1;exitDx=0;exitDy=0;" edge="1" parent="WIyWlLk6GJQsqaUBKTNV-1" source="ku0LGPkiu12r3fjWDvM0-29">
          <mxGeometry relative="1" as="geometry">
            <mxPoint x="270" y="420" as="sourcePoint" />
            <mxPoint x="160" y="465" as="targetPoint" />
          </mxGeometry>
        </mxCell>
        <mxCell id="ku0LGPkiu12r3fjWDvM0-29" value="Calculate value of the hands." style="rounded=1;whiteSpace=wrap;html=1;fontSize=12;glass=0;strokeWidth=1;shadow=0;" vertex="1" parent="WIyWlLk6GJQsqaUBKTNV-1">
          <mxGeometry x="210" y="345" width="120" height="40" as="geometry" />
        </mxCell>
        <mxCell id="ku0LGPkiu12r3fjWDvM0-35" style="edgeStyle=orthogonalEdgeStyle;rounded=0;orthogonalLoop=1;jettySize=auto;html=1;entryX=0;entryY=0.5;entryDx=0;entryDy=0;exitX=0.5;exitY=1;exitDx=0;exitDy=0;" edge="1" parent="WIyWlLk6GJQsqaUBKTNV-1" source="ku0LGPkiu12r3fjWDvM0-33" target="WIyWlLk6GJQsqaUBKTNV-10">
          <mxGeometry relative="1" as="geometry" />
        </mxCell>
        <mxCell id="ku0LGPkiu12r3fjWDvM0-33" value="Deal another hand." style="rounded=1;whiteSpace=wrap;html=1;fontSize=12;glass=0;strokeWidth=1;shadow=0;" vertex="1" parent="WIyWlLk6GJQsqaUBKTNV-1">
          <mxGeometry y="565" width="120" height="40" as="geometry" />
        </mxCell>
        <mxCell id="ku0LGPkiu12r3fjWDvM0-44" style="edgeStyle=orthogonalEdgeStyle;rounded=0;orthogonalLoop=1;jettySize=auto;html=1;entryX=1;entryY=0.5;entryDx=0;entryDy=0;exitX=1;exitY=0.5;exitDx=0;exitDy=0;" edge="1" parent="WIyWlLk6GJQsqaUBKTNV-1" source="ku0LGPkiu12r3fjWDvM0-41" target="WIyWlLk6GJQsqaUBKTNV-7">
          <mxGeometry relative="1" as="geometry">
            <Array as="points">
              <mxPoint x="380" y="660" />
              <mxPoint x="380" y="560" />
            </Array>
          </mxGeometry>
        </mxCell>
        <mxCell id="ku0LGPkiu12r3fjWDvM0-52" value="No" style="edgeLabel;html=1;align=center;verticalAlign=middle;resizable=0;points=[];" vertex="1" connectable="0" parent="ku0LGPkiu12r3fjWDvM0-44">
          <mxGeometry y="1" relative="1" as="geometry">
            <mxPoint as="offset" />
          </mxGeometry>
        </mxCell>
        <mxCell id="ku0LGPkiu12r3fjWDvM0-45" value="" style="edgeStyle=orthogonalEdgeStyle;rounded=0;orthogonalLoop=1;jettySize=auto;html=1;" edge="1" parent="WIyWlLk6GJQsqaUBKTNV-1" source="ku0LGPkiu12r3fjWDvM0-41" target="ku0LGPkiu12r3fjWDvM0-43">
          <mxGeometry relative="1" as="geometry" />
        </mxCell>
        <mxCell id="ku0LGPkiu12r3fjWDvM0-51" value="Yes" style="edgeLabel;html=1;align=center;verticalAlign=middle;resizable=0;points=[];" vertex="1" connectable="0" parent="ku0LGPkiu12r3fjWDvM0-45">
          <mxGeometry x="0.04" y="1" relative="1" as="geometry">
            <mxPoint as="offset" />
          </mxGeometry>
        </mxCell>
        <mxCell id="ku0LGPkiu12r3fjWDvM0-41" value="Is total &amp;gt; player total" style="rhombus;whiteSpace=wrap;html=1;shadow=0;fontFamily=Helvetica;fontSize=12;align=center;strokeWidth=1;spacing=6;spacingTop=-4;" vertex="1" parent="WIyWlLk6GJQsqaUBKTNV-1">
          <mxGeometry x="240" y="620" width="100" height="80" as="geometry" />
        </mxCell>
        <mxCell id="ku0LGPkiu12r3fjWDvM0-54" value="" style="edgeStyle=orthogonalEdgeStyle;rounded=0;orthogonalLoop=1;jettySize=auto;html=1;exitX=0;exitY=0.5;exitDx=0;exitDy=0;" edge="1" parent="WIyWlLk6GJQsqaUBKTNV-1" source="ku0LGPkiu12r3fjWDvM0-43" target="ku0LGPkiu12r3fjWDvM0-53">
          <mxGeometry relative="1" as="geometry" />
        </mxCell>
        <mxCell id="ku0LGPkiu12r3fjWDvM0-56" value="No" style="edgeLabel;html=1;align=center;verticalAlign=middle;resizable=0;points=[];" vertex="1" connectable="0" parent="ku0LGPkiu12r3fjWDvM0-54">
          <mxGeometry x="-0.4" y="-1" relative="1" as="geometry">
            <mxPoint as="offset" />
          </mxGeometry>
        </mxCell>
        <mxCell id="ku0LGPkiu12r3fjWDvM0-58" style="edgeStyle=orthogonalEdgeStyle;rounded=0;orthogonalLoop=1;jettySize=auto;html=1;entryX=0.5;entryY=0;entryDx=0;entryDy=0;exitX=1;exitY=0.5;exitDx=0;exitDy=0;" edge="1" parent="WIyWlLk6GJQsqaUBKTNV-1" source="ku0LGPkiu12r3fjWDvM0-43" target="ku0LGPkiu12r3fjWDvM0-57">
          <mxGeometry relative="1" as="geometry" />
        </mxCell>
        <mxCell id="ku0LGPkiu12r3fjWDvM0-59" value="Yes" style="edgeLabel;html=1;align=center;verticalAlign=middle;resizable=0;points=[];" vertex="1" connectable="0" parent="ku0LGPkiu12r3fjWDvM0-58">
          <mxGeometry x="-0.1455" y="1" relative="1" as="geometry">
            <mxPoint x="-1" y="-7" as="offset" />
          </mxGeometry>
        </mxCell>
        <mxCell id="ku0LGPkiu12r3fjWDvM0-43" value="Is total &amp;gt; 21" style="rhombus;whiteSpace=wrap;html=1;shadow=0;fontFamily=Helvetica;fontSize=12;align=center;strokeWidth=1;spacing=6;spacingTop=-4;" vertex="1" parent="WIyWlLk6GJQsqaUBKTNV-1">
          <mxGeometry x="240" y="750" width="100" height="80" as="geometry" />
        </mxCell>
        <mxCell id="ku0LGPkiu12r3fjWDvM0-47" value="Game Over!" style="rounded=1;whiteSpace=wrap;html=1;fontSize=12;glass=0;strokeWidth=1;shadow=0;" vertex="1" parent="WIyWlLk6GJQsqaUBKTNV-1">
          <mxGeometry y="870" width="120" height="40" as="geometry" />
        </mxCell>
        <mxCell id="ku0LGPkiu12r3fjWDvM0-55" style="edgeStyle=orthogonalEdgeStyle;rounded=0;orthogonalLoop=1;jettySize=auto;html=1;entryX=1;entryY=0.5;entryDx=0;entryDy=0;" edge="1" parent="WIyWlLk6GJQsqaUBKTNV-1" source="ku0LGPkiu12r3fjWDvM0-53" target="ku0LGPkiu12r3fjWDvM0-47">
          <mxGeometry relative="1" as="geometry" />
        </mxCell>
        <mxCell id="ku0LGPkiu12r3fjWDvM0-53" value="You Lose!" style="rounded=1;whiteSpace=wrap;html=1;fontSize=12;glass=0;strokeWidth=1;shadow=0;" vertex="1" parent="WIyWlLk6GJQsqaUBKTNV-1">
          <mxGeometry x="160" y="870" width="120" height="40" as="geometry" />
        </mxCell>
        <mxCell id="ku0LGPkiu12r3fjWDvM0-60" style="edgeStyle=orthogonalEdgeStyle;rounded=0;orthogonalLoop=1;jettySize=auto;html=1;entryX=0.5;entryY=1;entryDx=0;entryDy=0;" edge="1" parent="WIyWlLk6GJQsqaUBKTNV-1" source="ku0LGPkiu12r3fjWDvM0-57" target="ku0LGPkiu12r3fjWDvM0-47">
          <mxGeometry relative="1" as="geometry">
            <Array as="points">
              <mxPoint x="370" y="930" />
              <mxPoint x="60" y="930" />
            </Array>
          </mxGeometry>
        </mxCell>
        <mxCell id="ku0LGPkiu12r3fjWDvM0-61" value="No" style="edgeLabel;html=1;align=center;verticalAlign=middle;resizable=0;points=[];" vertex="1" connectable="0" parent="ku0LGPkiu12r3fjWDvM0-60">
          <mxGeometry x="0.2171" relative="1" as="geometry">
            <mxPoint x="33" as="offset" />
          </mxGeometry>
        </mxCell>
        <mxCell id="ku0LGPkiu12r3fjWDvM0-62" style="edgeStyle=orthogonalEdgeStyle;rounded=0;orthogonalLoop=1;jettySize=auto;html=1;entryX=1;entryY=0.5;entryDx=0;entryDy=0;" edge="1" parent="WIyWlLk6GJQsqaUBKTNV-1" source="ku0LGPkiu12r3fjWDvM0-57" target="ku0LGPkiu12r3fjWDvM0-23">
          <mxGeometry relative="1" as="geometry">
            <Array as="points">
              <mxPoint x="440" y="890" />
              <mxPoint x="440" y="235" />
            </Array>
          </mxGeometry>
        </mxCell>
        <mxCell id="ku0LGPkiu12r3fjWDvM0-63" value="Yes" style="edgeLabel;html=1;align=center;verticalAlign=middle;resizable=0;points=[];" vertex="1" connectable="0" parent="ku0LGPkiu12r3fjWDvM0-62">
          <mxGeometry x="0.8792" y="1" relative="1" as="geometry">
            <mxPoint as="offset" />
          </mxGeometry>
        </mxCell>
        <mxCell id="ku0LGPkiu12r3fjWDvM0-57" value="You Win. Play Again?" style="rounded=1;whiteSpace=wrap;html=1;fontSize=12;glass=0;strokeWidth=1;shadow=0;" vertex="1" parent="WIyWlLk6GJQsqaUBKTNV-1">
          <mxGeometry x="310" y="870" width="120" height="40" as="geometry" />
        </mxCell>
        <mxCell id="ku0LGPkiu12r3fjWDvM0-68" style="edgeStyle=orthogonalEdgeStyle;rounded=0;orthogonalLoop=1;jettySize=auto;html=1;entryX=1;entryY=0.5;entryDx=0;entryDy=0;exitX=1;exitY=0.5;exitDx=0;exitDy=0;" edge="1" parent="WIyWlLk6GJQsqaUBKTNV-1" source="ku0LGPkiu12r3fjWDvM0-64" target="ku0LGPkiu12r3fjWDvM0-66">
          <mxGeometry relative="1" as="geometry" />
        </mxCell>
        <mxCell id="ku0LGPkiu12r3fjWDvM0-64" value="Select, Bet Amount? or specify custom." style="rounded=1;whiteSpace=wrap;html=1;fontSize=12;glass=0;strokeWidth=1;shadow=0;" vertex="1" parent="WIyWlLk6GJQsqaUBKTNV-1">
          <mxGeometry x="610" y="20" width="120" height="40" as="geometry" />
        </mxCell>
        <mxCell id="ku0LGPkiu12r3fjWDvM0-69" value="" style="edgeStyle=orthogonalEdgeStyle;rounded=0;orthogonalLoop=1;jettySize=auto;html=1;exitX=0;exitY=0.5;exitDx=0;exitDy=0;" edge="1" parent="WIyWlLk6GJQsqaUBKTNV-1" source="ku0LGPkiu12r3fjWDvM0-66" target="ku0LGPkiu12r3fjWDvM0-67">
          <mxGeometry relative="1" as="geometry" />
        </mxCell>
        <mxCell id="ku0LGPkiu12r3fjWDvM0-66" value="Select Custom Rules" style="rounded=1;whiteSpace=wrap;html=1;fontSize=12;glass=0;strokeWidth=1;shadow=0;" vertex="1" parent="WIyWlLk6GJQsqaUBKTNV-1">
          <mxGeometry x="610" y="80" width="120" height="40" as="geometry" />
        </mxCell>
        <mxCell id="ku0LGPkiu12r3fjWDvM0-71" style="edgeStyle=orthogonalEdgeStyle;rounded=0;orthogonalLoop=1;jettySize=auto;html=1;entryX=0.5;entryY=0;entryDx=0;entryDy=0;" edge="1" parent="WIyWlLk6GJQsqaUBKTNV-1" source="ku0LGPkiu12r3fjWDvM0-67" target="ku0LGPkiu12r3fjWDvM0-70">
          <mxGeometry relative="1" as="geometry" />
        </mxCell>
        <mxCell id="ku0LGPkiu12r3fjWDvM0-67" value="Start New Game" style="rounded=1;whiteSpace=wrap;html=1;fontSize=12;glass=0;strokeWidth=1;shadow=0;" vertex="1" parent="WIyWlLk6GJQsqaUBKTNV-1">
          <mxGeometry x="570" y="140" width="120" height="40" as="geometry" />
        </mxCell>
        <mxCell id="ku0LGPkiu12r3fjWDvM0-73" value="" style="edgeStyle=orthogonalEdgeStyle;rounded=0;orthogonalLoop=1;jettySize=auto;html=1;" edge="1" parent="WIyWlLk6GJQsqaUBKTNV-1" source="ku0LGPkiu12r3fjWDvM0-70" target="ku0LGPkiu12r3fjWDvM0-72">
          <mxGeometry relative="1" as="geometry" />
        </mxCell>
        <mxCell id="ku0LGPkiu12r3fjWDvM0-70" value="Dealer deals one card to all players" style="rounded=1;whiteSpace=wrap;html=1;fontSize=12;glass=0;strokeWidth=1;shadow=0;" vertex="1" parent="WIyWlLk6GJQsqaUBKTNV-1">
          <mxGeometry x="480" y="230" width="120" height="40" as="geometry" />
        </mxCell>
        <mxCell id="ku0LGPkiu12r3fjWDvM0-75" value="" style="edgeStyle=orthogonalEdgeStyle;rounded=0;orthogonalLoop=1;jettySize=auto;html=1;" edge="1" parent="WIyWlLk6GJQsqaUBKTNV-1" source="ku0LGPkiu12r3fjWDvM0-72" target="ku0LGPkiu12r3fjWDvM0-74">
          <mxGeometry relative="1" as="geometry" />
        </mxCell>
        <mxCell id="ku0LGPkiu12r3fjWDvM0-72" value="Dealer deals 2 card to all player and a hidden card to self." style="rounded=1;whiteSpace=wrap;html=1;fontSize=12;glass=0;strokeWidth=1;shadow=0;" vertex="1" parent="WIyWlLk6GJQsqaUBKTNV-1">
          <mxGeometry x="660" y="210" width="120" height="40" as="geometry" />
        </mxCell>
        <mxCell id="ku0LGPkiu12r3fjWDvM0-106" style="edgeStyle=orthogonalEdgeStyle;rounded=0;orthogonalLoop=1;jettySize=auto;html=1;entryX=0.5;entryY=0;entryDx=0;entryDy=0;" edge="1" parent="WIyWlLk6GJQsqaUBKTNV-1" source="ku0LGPkiu12r3fjWDvM0-74" target="ku0LGPkiu12r3fjWDvM0-79">
          <mxGeometry relative="1" as="geometry" />
        </mxCell>
        <mxCell id="ku0LGPkiu12r3fjWDvM0-74" value="Calculate value of the hands." style="rounded=1;whiteSpace=wrap;html=1;fontSize=12;glass=0;strokeWidth=1;shadow=0;" vertex="1" parent="WIyWlLk6GJQsqaUBKTNV-1">
          <mxGeometry x="660" y="290" width="120" height="40" as="geometry" />
        </mxCell>
        <mxCell id="ku0LGPkiu12r3fjWDvM0-76" value="Stay" style="edgeStyle=orthogonalEdgeStyle;rounded=0;html=1;jettySize=auto;orthogonalLoop=1;fontSize=11;endArrow=block;endFill=0;endSize=8;strokeWidth=1;shadow=0;labelBackgroundColor=none;exitX=1;exitY=0.5;exitDx=0;exitDy=0;entryX=0.5;entryY=0;entryDx=0;entryDy=0;" edge="1" parent="WIyWlLk6GJQsqaUBKTNV-1" source="ku0LGPkiu12r3fjWDvM0-79" target="ku0LGPkiu12r3fjWDvM0-81">
          <mxGeometry x="-0.2727" y="10" relative="1" as="geometry">
            <mxPoint as="offset" />
            <mxPoint x="720" y="480" as="targetPoint" />
          </mxGeometry>
        </mxCell>
        <mxCell id="ku0LGPkiu12r3fjWDvM0-77" style="edgeStyle=orthogonalEdgeStyle;rounded=0;orthogonalLoop=1;jettySize=auto;html=1;entryX=0.5;entryY=0;entryDx=0;entryDy=0;exitX=0;exitY=0.5;exitDx=0;exitDy=0;" edge="1" parent="WIyWlLk6GJQsqaUBKTNV-1" source="ku0LGPkiu12r3fjWDvM0-79" target="ku0LGPkiu12r3fjWDvM0-89">
          <mxGeometry relative="1" as="geometry" />
        </mxCell>
        <mxCell id="ku0LGPkiu12r3fjWDvM0-78" value="Hit&lt;br&gt;" style="edgeLabel;html=1;align=center;verticalAlign=middle;resizable=0;points=[];" vertex="1" connectable="0" parent="ku0LGPkiu12r3fjWDvM0-77">
          <mxGeometry x="-0.2909" y="4" relative="1" as="geometry">
            <mxPoint x="-1" y="-14" as="offset" />
          </mxGeometry>
        </mxCell>
        <mxCell id="ku0LGPkiu12r3fjWDvM0-79" value="Hit or Stay?" style="rhombus;whiteSpace=wrap;html=1;shadow=0;fontFamily=Helvetica;fontSize=12;align=center;strokeWidth=1;spacing=6;spacingTop=-4;" vertex="1" parent="WIyWlLk6GJQsqaUBKTNV-1">
          <mxGeometry x="550" y="330" width="100" height="80" as="geometry" />
        </mxCell>
        <mxCell id="ku0LGPkiu12r3fjWDvM0-80" value="" style="edgeStyle=orthogonalEdgeStyle;rounded=0;orthogonalLoop=1;jettySize=auto;html=1;" edge="1" parent="WIyWlLk6GJQsqaUBKTNV-1" source="ku0LGPkiu12r3fjWDvM0-81" target="ku0LGPkiu12r3fjWDvM0-94">
          <mxGeometry relative="1" as="geometry" />
        </mxCell>
        <mxCell id="ku0LGPkiu12r3fjWDvM0-81" value="Dealer receives card until greater than player" style="rounded=1;whiteSpace=wrap;html=1;fontSize=12;glass=0;strokeWidth=1;shadow=0;" vertex="1" parent="WIyWlLk6GJQsqaUBKTNV-1">
          <mxGeometry x="640" y="450" width="120" height="40" as="geometry" />
        </mxCell>
        <mxCell id="ku0LGPkiu12r3fjWDvM0-82" value="Yes" style="rounded=0;html=1;jettySize=auto;orthogonalLoop=1;fontSize=11;endArrow=block;endFill=0;endSize=8;strokeWidth=1;shadow=0;labelBackgroundColor=none;edgeStyle=orthogonalEdgeStyle;" edge="1" parent="WIyWlLk6GJQsqaUBKTNV-1" source="ku0LGPkiu12r3fjWDvM0-85" target="ku0LGPkiu12r3fjWDvM0-87">
          <mxGeometry x="0.1081" y="1" relative="1" as="geometry">
            <mxPoint as="offset" />
          </mxGeometry>
        </mxCell>
        <mxCell id="ku0LGPkiu12r3fjWDvM0-83" style="edgeStyle=orthogonalEdgeStyle;rounded=0;orthogonalLoop=1;jettySize=auto;html=1;entryX=0.5;entryY=1;entryDx=0;entryDy=0;" edge="1" parent="WIyWlLk6GJQsqaUBKTNV-1" source="ku0LGPkiu12r3fjWDvM0-85" target="ku0LGPkiu12r3fjWDvM0-79">
          <mxGeometry relative="1" as="geometry" />
        </mxCell>
        <mxCell id="ku0LGPkiu12r3fjWDvM0-84" value="No" style="edgeLabel;html=1;align=center;verticalAlign=middle;resizable=0;points=[];" vertex="1" connectable="0" parent="ku0LGPkiu12r3fjWDvM0-83">
          <mxGeometry x="0.04" y="-2" relative="1" as="geometry">
            <mxPoint as="offset" />
          </mxGeometry>
        </mxCell>
        <mxCell id="ku0LGPkiu12r3fjWDvM0-85" value="Is total &amp;gt; 21" style="rhombus;whiteSpace=wrap;html=1;shadow=0;fontFamily=Helvetica;fontSize=12;align=center;strokeWidth=1;spacing=6;spacingTop=-4;" vertex="1" parent="WIyWlLk6GJQsqaUBKTNV-1">
          <mxGeometry x="550" y="480" width="100" height="80" as="geometry" />
        </mxCell>
        <mxCell id="ku0LGPkiu12r3fjWDvM0-86" value="" style="edgeStyle=orthogonalEdgeStyle;rounded=0;orthogonalLoop=1;jettySize=auto;html=1;entryX=0;entryY=0.5;entryDx=0;entryDy=0;" edge="1" parent="WIyWlLk6GJQsqaUBKTNV-1" source="ku0LGPkiu12r3fjWDvM0-87" target="ku0LGPkiu12r3fjWDvM0-100">
          <mxGeometry relative="1" as="geometry" />
        </mxCell>
        <mxCell id="ku0LGPkiu12r3fjWDvM0-87" value="Player Bust.&amp;nbsp;" style="rounded=1;whiteSpace=wrap;html=1;fontSize=12;glass=0;strokeWidth=1;shadow=0;" vertex="1" parent="WIyWlLk6GJQsqaUBKTNV-1">
          <mxGeometry x="460" y="600" width="120" height="40" as="geometry" />
        </mxCell>
        <mxCell id="ku0LGPkiu12r3fjWDvM0-88" style="edgeStyle=orthogonalEdgeStyle;rounded=0;orthogonalLoop=1;jettySize=auto;html=1;entryX=0;entryY=0.5;entryDx=0;entryDy=0;exitX=0.5;exitY=1;exitDx=0;exitDy=0;" edge="1" parent="WIyWlLk6GJQsqaUBKTNV-1" source="ku0LGPkiu12r3fjWDvM0-89" target="ku0LGPkiu12r3fjWDvM0-85">
          <mxGeometry relative="1" as="geometry" />
        </mxCell>
        <mxCell id="ku0LGPkiu12r3fjWDvM0-89" value="Deal another hand." style="rounded=1;whiteSpace=wrap;html=1;fontSize=12;glass=0;strokeWidth=1;shadow=0;" vertex="1" parent="WIyWlLk6GJQsqaUBKTNV-1">
          <mxGeometry x="450" y="450" width="120" height="40" as="geometry" />
        </mxCell>
        <mxCell id="ku0LGPkiu12r3fjWDvM0-90" style="edgeStyle=orthogonalEdgeStyle;rounded=0;orthogonalLoop=1;jettySize=auto;html=1;entryX=1;entryY=0.5;entryDx=0;entryDy=0;exitX=1;exitY=0.5;exitDx=0;exitDy=0;" edge="1" parent="WIyWlLk6GJQsqaUBKTNV-1" source="ku0LGPkiu12r3fjWDvM0-94" target="ku0LGPkiu12r3fjWDvM0-81">
          <mxGeometry relative="1" as="geometry">
            <Array as="points">
              <mxPoint x="780" y="575" />
              <mxPoint x="780" y="475" />
              <mxPoint x="760" y="475" />
            </Array>
          </mxGeometry>
        </mxCell>
        <mxCell id="ku0LGPkiu12r3fjWDvM0-91" value="No" style="edgeLabel;html=1;align=center;verticalAlign=middle;resizable=0;points=[];" vertex="1" connectable="0" parent="ku0LGPkiu12r3fjWDvM0-90">
          <mxGeometry y="1" relative="1" as="geometry">
            <mxPoint as="offset" />
          </mxGeometry>
        </mxCell>
        <mxCell id="ku0LGPkiu12r3fjWDvM0-92" value="" style="edgeStyle=orthogonalEdgeStyle;rounded=0;orthogonalLoop=1;jettySize=auto;html=1;" edge="1" parent="WIyWlLk6GJQsqaUBKTNV-1" source="ku0LGPkiu12r3fjWDvM0-94" target="ku0LGPkiu12r3fjWDvM0-99">
          <mxGeometry relative="1" as="geometry" />
        </mxCell>
        <mxCell id="ku0LGPkiu12r3fjWDvM0-93" value="Yes" style="edgeLabel;html=1;align=center;verticalAlign=middle;resizable=0;points=[];" vertex="1" connectable="0" parent="ku0LGPkiu12r3fjWDvM0-92">
          <mxGeometry x="0.04" y="1" relative="1" as="geometry">
            <mxPoint as="offset" />
          </mxGeometry>
        </mxCell>
        <mxCell id="ku0LGPkiu12r3fjWDvM0-94" value="Is total &amp;gt; player total" style="rhombus;whiteSpace=wrap;html=1;shadow=0;fontFamily=Helvetica;fontSize=12;align=center;strokeWidth=1;spacing=6;spacingTop=-4;" vertex="1" parent="WIyWlLk6GJQsqaUBKTNV-1">
          <mxGeometry x="670" y="535" width="100" height="80" as="geometry" />
        </mxCell>
        <mxCell id="ku0LGPkiu12r3fjWDvM0-95" value="" style="edgeStyle=orthogonalEdgeStyle;rounded=0;orthogonalLoop=1;jettySize=auto;html=1;exitX=0;exitY=0.5;exitDx=0;exitDy=0;" edge="1" parent="WIyWlLk6GJQsqaUBKTNV-1" source="ku0LGPkiu12r3fjWDvM0-99" target="ku0LGPkiu12r3fjWDvM0-102">
          <mxGeometry relative="1" as="geometry" />
        </mxCell>
        <mxCell id="ku0LGPkiu12r3fjWDvM0-96" value="No" style="edgeLabel;html=1;align=center;verticalAlign=middle;resizable=0;points=[];" vertex="1" connectable="0" parent="ku0LGPkiu12r3fjWDvM0-95">
          <mxGeometry x="-0.4" y="-1" relative="1" as="geometry">
            <mxPoint as="offset" />
          </mxGeometry>
        </mxCell>
        <mxCell id="ku0LGPkiu12r3fjWDvM0-97" style="edgeStyle=orthogonalEdgeStyle;rounded=0;orthogonalLoop=1;jettySize=auto;html=1;entryX=0.5;entryY=0;entryDx=0;entryDy=0;exitX=1;exitY=0.5;exitDx=0;exitDy=0;" edge="1" parent="WIyWlLk6GJQsqaUBKTNV-1" source="ku0LGPkiu12r3fjWDvM0-99" target="ku0LGPkiu12r3fjWDvM0-105">
          <mxGeometry relative="1" as="geometry" />
        </mxCell>
        <mxCell id="ku0LGPkiu12r3fjWDvM0-98" value="Yes" style="edgeLabel;html=1;align=center;verticalAlign=middle;resizable=0;points=[];" vertex="1" connectable="0" parent="ku0LGPkiu12r3fjWDvM0-97">
          <mxGeometry x="-0.1455" y="1" relative="1" as="geometry">
            <mxPoint x="-1" y="-7" as="offset" />
          </mxGeometry>
        </mxCell>
        <mxCell id="ku0LGPkiu12r3fjWDvM0-99" value="Is total &amp;gt; 21" style="rhombus;whiteSpace=wrap;html=1;shadow=0;fontFamily=Helvetica;fontSize=12;align=center;strokeWidth=1;spacing=6;spacingTop=-4;" vertex="1" parent="WIyWlLk6GJQsqaUBKTNV-1">
          <mxGeometry x="640" y="660" width="100" height="80" as="geometry" />
        </mxCell>
        <mxCell id="ku0LGPkiu12r3fjWDvM0-100" value="Game Over!" style="rounded=1;whiteSpace=wrap;html=1;fontSize=12;glass=0;strokeWidth=1;shadow=0;" vertex="1" parent="WIyWlLk6GJQsqaUBKTNV-1">
          <mxGeometry x="560" y="860" width="120" height="40" as="geometry" />
        </mxCell>
        <mxCell id="ku0LGPkiu12r3fjWDvM0-101" style="edgeStyle=orthogonalEdgeStyle;rounded=0;orthogonalLoop=1;jettySize=auto;html=1;entryX=0.5;entryY=0;entryDx=0;entryDy=0;" edge="1" parent="WIyWlLk6GJQsqaUBKTNV-1" source="ku0LGPkiu12r3fjWDvM0-102" target="ku0LGPkiu12r3fjWDvM0-100">
          <mxGeometry relative="1" as="geometry" />
        </mxCell>
        <mxCell id="ku0LGPkiu12r3fjWDvM0-102" value="You Lose!" style="rounded=1;whiteSpace=wrap;html=1;fontSize=12;glass=0;strokeWidth=1;shadow=0;" vertex="1" parent="WIyWlLk6GJQsqaUBKTNV-1">
          <mxGeometry x="560" y="770" width="120" height="40" as="geometry" />
        </mxCell>
        <mxCell id="ku0LGPkiu12r3fjWDvM0-103" style="edgeStyle=orthogonalEdgeStyle;rounded=0;orthogonalLoop=1;jettySize=auto;html=1;entryX=1;entryY=0.5;entryDx=0;entryDy=0;" edge="1" parent="WIyWlLk6GJQsqaUBKTNV-1" source="ku0LGPkiu12r3fjWDvM0-105" target="ku0LGPkiu12r3fjWDvM0-100">
          <mxGeometry relative="1" as="geometry">
            <Array as="points">
              <mxPoint x="830" y="880" />
            </Array>
            <mxPoint x="730" y="890" as="targetPoint" />
          </mxGeometry>
        </mxCell>
        <mxCell id="ku0LGPkiu12r3fjWDvM0-104" value="No" style="edgeLabel;html=1;align=center;verticalAlign=middle;resizable=0;points=[];" vertex="1" connectable="0" parent="ku0LGPkiu12r3fjWDvM0-103">
          <mxGeometry x="0.2171" relative="1" as="geometry">
            <mxPoint x="33" as="offset" />
          </mxGeometry>
        </mxCell>
        <mxCell id="ku0LGPkiu12r3fjWDvM0-105" value="You Win. Play Again?" style="rounded=1;whiteSpace=wrap;html=1;fontSize=12;glass=0;strokeWidth=1;shadow=0;" vertex="1" parent="WIyWlLk6GJQsqaUBKTNV-1">
          <mxGeometry x="750" y="785" width="120" height="40" as="geometry" />
        </mxCell>
      </root>
    </mxGraphModel>
  </diagram>
</mxfile>
